# xmcd
#
# Track frame offsets: 
#        150
#        18234
#        34992
#        50955
#        64028
#        80068
#        95733
#        111462
#        136994
#        150632
#        166615
#        180341
#        200800
#        214897
#        229491
#        249473
#        273102
#        293417
#        308765
#        329609
#
# Disc length: 4787 seconds
#
# Revision: 1
# Processed by: cddbd v1.5.2PL0 Copyright (c) Steve Scherf et al.
# Submitted via: ExactAudioCopy v1.1
#
DISCID=2612b114
DTITLE=Various Artist - Wonderland - The Spirit Of Earth Wind and Fire
DYEAR=2012
DGENRE=R&B
TTITLE0=Dee Dee Bridgewater - Tequila Mockingbird
TTITLE1=Pockets - Got To Find My Way
TTITLE2=Deniece Williams - The Boy I Left Behind
TTITLE3=Mighty Clouds Of Joy - Glow Love
TTITLE4=Sylvia St. James - Let Love Groove Me
TTITLE5=Tavares - Love Uprising (Single Version)
TTITLE6=Alton McClain and Destiny - Answer To My Prayer
TTITLE7=Paulinho Da Costa - Let's Get Together
TTITLE8=Grey and Hanks - Dancin'
TTITLE9=Flora Purim - Angels
TTITLE10=Ronnie Laws - All For You
TTITLE11=The Emotions - There'll Never Be Another Moment
TTITLE12=Ramsey Lewis - Sun Goddess (Single Version)
TTITLE13=Valerie Carter - City Lights
TTITLE14=Caldera - Ancient Source
TTITLE15=Abraham Laboriel feat. Philip Bailey - And I Do
TTITLE16=Chaka Khan - Lover's Touch
TTITLE17=Blue Magic - I Waited
TTITLE18=Starguard - (Once In A Lifetime) Dream Come True
TTITLE19=Gene Harris - Theme For Relana
EXTD=
EXTT0=
EXTT1=
EXTT2=
EXTT3=
EXTT4=
EXTT5=
EXTT6=
EXTT7=
EXTT8=
EXTT9=
EXTT10=
EXTT11=
EXTT12=
EXTT13=
EXTT14=
EXTT15=
EXTT16=
EXTT17=
EXTT18=
EXTT19=
PLAYORDER=
